# Blender v2.78 (sub 0) OBJ File: 'lvl1.blend'
# www.blender.org
mtllib lvl1.mtl
o Cube.001
v -3.464757 -1.689402 -52.911835
v -3.464757 5.240112 -52.911835
v -3.464757 -1.689402 -59.841347
v -3.464757 5.240112 -59.841347
v 3.464757 -1.689402 -52.911835
v 3.464757 5.240112 -52.911835
v 3.464757 -1.689402 -59.841347
v 3.464757 5.240112 -59.841347
vn -1.0000 0.0000 0.0000
vn 0.0000 0.0000 -1.0000
vn 1.0000 0.0000 0.0000
vn 0.0000 0.0000 1.0000
vn 0.0000 -1.0000 0.0000
vn 0.0000 1.0000 0.0000
usemtl None
s off
f 1//1 2//1 4//1 3//1
f 3//2 4//2 8//2 7//2
f 7//3 8//3 6//3 5//3
f 5//4 6//4 2//4 1//4
f 3//5 7//5 5//5 1//5
f 8//6 4//6 2//6 6//6
o Cube
v 7.986440 -0.474798 -1.000000
v 7.986440 -0.474798 1.000000
v -7.986441 -0.474798 1.000000
v -7.986437 -0.474798 -1.000000
v 7.986444 0.474798 -0.999999
v 7.986435 0.474798 1.000001
v -7.986443 0.474798 1.000000
v -7.986440 0.474798 -1.000000
v 7.986440 -0.474791 -16.677629
v -7.986437 -0.474791 -16.677629
v 7.986444 0.474805 -16.677629
v -7.986439 0.474805 -16.677629
v 7.986440 -0.461728 -17.561323
v -7.986437 -0.461728 -17.561323
v 7.986444 0.461741 -17.340105
v -7.986439 0.461741 -17.340105
v 7.986440 0.813307 -22.832870
v -7.986437 0.813307 -22.832870
v 7.986444 1.762847 -22.822586
v -7.986439 1.762847 -22.822586
v 7.986440 0.963814 -36.728909
v -7.986437 0.963814 -36.728909
v 7.986444 1.913354 -36.718624
v -7.986439 1.913354 -36.718624
v 7.986440 -0.252110 -42.579597
v -7.986437 -0.252110 -42.579597
v 7.986444 0.697430 -42.569313
v -7.986439 0.697430 -42.569313
v 7.986440 -0.017401 -64.249855
v -7.986437 -0.017401 -64.249855
v 7.986444 0.932139 -64.239571
v -7.986439 0.932139 -64.239571
v 7.986440 0.042789 -69.807098
v -7.986437 0.042789 -69.807098
v 7.986444 0.992329 -69.796814
v -7.986439 0.992329 -69.796814
v 2.522071 0.708076 -85.729370
v -2.522067 0.708076 -85.729370
v 2.522072 1.007935 -85.726120
v -2.522068 1.007935 -85.726120
v 2.522071 1.209837 -132.022141
v -2.522067 1.209837 -132.022141
v 2.522072 1.509696 -132.018890
v -2.522068 1.509696 -132.018890
v 7.560414 1.006143 -152.629227
v -7.560411 1.006143 -152.629227
v 7.560418 1.905030 -152.619476
v -7.560413 1.905030 -152.619476
v 7.560414 1.177326 -168.410660
v -7.560411 1.177326 -168.410660
v 7.560418 2.076214 -168.400909
v -7.560413 2.076214 -168.400909
v 7.560414 1.371077 -186.272537
v -7.560411 1.371077 -186.272537
v 7.560418 2.269965 -186.262787
v -7.560413 2.269965 -186.262787
v 7.560414 1.470333 -195.422974
v -7.560411 1.470333 -195.422974
v 7.560418 2.369221 -195.413223
v -7.560413 2.369221 -195.413223
v 7.560414 1.498291 -196.765472
v -7.560411 1.498291 -196.765472
v 7.560418 2.368024 -196.538193
v -7.560413 2.368024 -196.538193
v 7.560414 2.240098 -199.560562
v -7.560411 2.240098 -199.560562
v 7.560418 3.038476 -199.147430
v -7.560413 3.038476 -199.147430
v 7.560414 3.299428 -201.588364
v -7.560411 3.299428 -201.588364
v 7.560418 4.000235 -201.025391
v -7.560413 4.000235 -201.025391
v 7.560414 5.747910 -204.636307
v -7.560411 5.747910 -204.636307
v 7.560418 6.448716 -204.073334
v -7.560413 6.448716 -204.073334
v 7.560414 5.910957 -204.818649
v -7.560411 5.910957 -204.818649
v 7.560418 6.457586 -204.105011
v -7.560413 6.457586 -204.105011
v 7.560414 8.719285 -206.922974
v -7.560411 8.719285 -206.922974
v 7.560418 8.936590 -206.050705
v -7.560413 8.936590 -206.050705
v 7.560414 11.584419 -207.627121
v -7.560411 11.584419 -207.627121
v 7.560418 11.620115 -206.728912
v -7.560413 11.620115 -206.728912
v 7.560414 15.236840 -207.772247
v -7.560411 15.236840 -207.772247
v 7.560418 15.272538 -206.874039
v -7.560413 15.272538 -206.874039
v 7.560414 16.594374 -207.811813
v -7.560411 16.594374 -207.811813
v 7.560418 16.403605 -206.933380
v -7.560413 16.403605 -206.933380
v 7.349890 19.274004 -206.639511
v -7.770935 19.274004 -206.639511
v 7.349894 18.607489 -206.036346
v -7.770937 18.607489 -206.036346
v 7.349890 21.574177 -204.097733
v -7.770935 21.574177 -204.097733
v 7.349894 20.907660 -203.494568
v -7.770937 20.907660 -203.494568
v 7.349890 23.438402 -202.027466
v -7.770935 23.438402 -202.027466
v 7.349894 22.677052 -201.549545
v -7.770937 22.677052 -201.549545
v 7.349890 24.989964 -199.543228
v -7.770935 24.989964 -199.543228
v 7.349894 24.157913 -199.203003
v -7.770937 24.157913 -199.203003
v 7.349890 26.630077 -195.444595
v -7.770935 26.630077 -195.444595
v 7.349894 25.731157 -195.443054
v -7.770937 25.731157 -195.443054
v 7.349890 26.687559 -161.923386
v -7.770935 26.687559 -161.923386
v 7.349894 25.788637 -161.921844
v -7.770937 25.788637 -161.921844
v 7.349890 26.705898 -151.227188
v -7.770935 26.705898 -151.227188
v 7.349894 25.806978 -151.225647
v -7.770937 25.806978 -151.225647
v 0.000002 15.272538 -206.874039
v 0.000002 16.403605 -206.933380
v 7.560418 15.838072 -206.903717
v -7.560413 15.838072 -206.903717
v -0.210522 18.607489 -206.036346
v -7.665676 17.505547 -206.484863
v 7.455156 17.505547 -206.484863
v -7.770937 19.757574 -204.765457
v 7.349894 19.757574 -204.765457
v -0.210522 22.677052 -201.549545
v 7.349894 21.792356 -202.522064
v -7.770937 21.792356 -202.522064
v -0.210522 21.792356 -202.522064
v -0.105260 17.505547 -206.484863
v 0.000002 15.838072 -206.903717
v -3.780205 15.272538 -206.874039
v -3.780205 16.403605 -206.933380
v 7.560418 16.120838 -206.918549
v -7.560413 15.555305 -206.888885
v -3.990730 18.607489 -206.036346
v -7.718307 18.056519 -206.260605
v 7.402525 18.056519 -206.260605
v -3.990730 20.907660 -203.494568
v -7.770937 20.332617 -204.130005
v 7.349894 20.332617 -204.130005
v -3.990730 22.677052 -201.549545
v 7.349894 22.234705 -202.035797
v -7.770937 21.350008 -203.008316
v 3.780210 15.272538 -206.874039
v 3.780210 16.403605 -206.933380
v 7.560418 15.555305 -206.888885
v -7.560413 16.120838 -206.918549
v 3.569686 18.607489 -206.036346
v -7.613045 16.954575 -206.709122
v 7.507787 16.954575 -206.709122
v 3.569686 20.907660 -203.494568
v -7.770937 19.182531 -205.400909
v 7.349894 19.182531 -205.400909
v 3.569686 22.677052 -201.549545
v 7.349894 21.350008 -203.008316
v -7.770937 22.234705 -202.035797
v -3.990730 19.757574 -204.765457
v 3.569686 19.757574 -204.765457
v -0.210522 22.234705 -202.035797
v -3.990730 21.792356 -202.522064
v 3.569686 21.792356 -202.522064
v -0.157891 18.056519 -206.260605
v -0.052629 16.954575 -206.709122
v -3.885468 17.505547 -206.484863
v 3.674948 17.505547 -206.484863
v 0.000002 16.120838 -206.918549
v 0.000002 15.555305 -206.888885
v -3.780205 15.838072 -206.903717
v 3.780210 15.838072 -206.903717
v 3.780210 15.555305 -206.888885
v -3.780205 15.555305 -206.888885
v -3.780205 16.120838 -206.918549
v 3.727579 16.954575 -206.709122
v -3.832837 16.954575 -206.709122
v -3.938099 18.056519 -206.260605
v 3.569686 21.350008 -203.008316
v -3.990730 21.350008 -203.008316
v -3.990730 22.234705 -202.035797
v 3.569686 19.182531 -205.400909
v -3.990730 19.182531 -205.400909
v -3.990730 20.332617 -204.130005
v 3.569686 20.332617 -204.130005
v 3.569686 22.234705 -202.035797
v 3.622317 18.056519 -206.260605
v 3.780210 16.120838 -206.918549
v 0.000002 16.594374 -207.811813
v -7.665673 17.934189 -207.225662
v 7.455152 17.934189 -207.225662
v -7.770935 20.424089 -205.368622
v 7.349890 20.424089 -205.368622
v -0.210522 23.438402 -202.027466
v 7.349890 22.506289 -203.062592
v -7.770935 22.506289 -203.062592
v -0.210522 22.506289 -203.062592
v -0.105260 17.934189 -207.225662
v -3.780205 16.594374 -207.811813
v -3.990729 19.274004 -206.639511
v -7.613042 17.264280 -207.518738
v 7.507783 17.264280 -207.518738
v -3.990729 21.574177 -204.097733
v -7.770935 19.849047 -206.004059
v 7.349890 19.849047 -206.004059
v -3.990729 23.438402 -202.027466
v 7.349890 22.972345 -202.545029
v -7.770935 22.040232 -203.580170
v 3.780208 16.594374 -207.811813
v 3.569684 19.274004 -206.639511
v -7.718304 18.604097 -206.932587
v 7.402521 18.604097 -206.932587
v 3.569684 21.574177 -204.097733
v -7.770935 20.999132 -204.733185
v 7.349890 20.999132 -204.733185
v 3.569684 23.438402 -202.027466
v 7.349890 22.040232 -203.580170
v -7.770935 22.972345 -202.545029
v -0.210522 22.972345 -202.545029
v 3.569684 22.506289 -203.062592
v -3.990729 22.506289 -203.062592
v 3.569684 20.424089 -205.368622
v -3.990729 20.424089 -205.368622
v -0.157891 18.604097 -206.932587
v -0.052629 17.264280 -207.518738
v 3.674946 17.934189 -207.225662
v -3.885467 17.934189 -207.225662
v -3.832835 17.264280 -207.518738
v 3.727577 17.264280 -207.518738
v 3.622315 18.604097 -206.932587
v -3.990729 19.849047 -206.004059
v 3.569684 19.849047 -206.004059
v 3.569684 20.999132 -204.733185
v -3.990729 22.040232 -203.580170
v 3.569684 22.040232 -203.580170
v 3.569684 22.972345 -202.545029
v -3.990729 22.972345 -202.545029
v -3.990729 20.999132 -204.733185
v -3.938098 18.604097 -206.932587
v -3.962956 19.207264 -206.640640
v -7.715438 19.207264 -206.640640
v -7.663193 18.660334 -206.863251
v 7.346735 18.660334 -206.863251
v 7.294490 19.207264 -206.640640
v -3.962956 21.490562 -204.117508
v -7.715438 21.490562 -204.117508
v -7.715438 20.919739 -204.748276
v 7.294490 20.919739 -204.748276
v 7.294490 21.490562 -204.117508
v -7.715438 21.929668 -203.634811
v 3.542008 19.207264 -206.640640
v -0.210474 19.207264 -206.640640
v -7.715438 19.778088 -206.009857
v -7.715438 20.348911 -205.379074
v 7.294490 19.778088 -206.009857
v 7.294490 20.348911 -205.379074
v 7.294490 21.929668 -203.634811
v 7.294490 22.368771 -203.152130
v -7.715438 22.807875 -202.669434
v -7.715438 22.368771 -203.152130
v -3.962956 20.348911 -205.379074
v -3.962956 22.368771 -203.152130
v 3.542008 22.368771 -203.152130
v -0.210474 22.368771 -203.152130
v -0.158229 18.660334 -206.863251
v 7.294490 22.807875 -202.669434
v 3.542008 21.490562 -204.117508
v 3.542008 20.348911 -205.379074
v -0.210474 22.807875 -202.669434
v -3.910711 18.660334 -206.863251
v 3.542008 21.929668 -203.634811
v -3.962956 21.929668 -203.634811
v -3.962956 22.807875 -202.669434
v 3.542008 19.778088 -206.009857
v -3.962956 19.778088 -206.009857
v -3.962956 20.919739 -204.748276
v 3.542008 20.919739 -204.748276
v 3.542008 22.807875 -202.669434
v 3.594253 18.660334 -206.863251
v -0.210522 25.788637 -161.921844
v -0.210522 25.806978 -151.225647
v -7.770937 25.797808 -156.573746
v 7.349894 25.797808 -156.573746
v -0.210522 25.797808 -156.573746
v -3.990730 25.788637 -161.921844
v -3.990730 25.806978 -151.225647
v -7.770937 25.802393 -153.899689
v 7.349894 25.802393 -153.899689
v 3.569686 25.788637 -161.921844
v 3.569686 25.806978 -151.225647
v -7.770937 25.793221 -159.247803
v 7.349894 25.793221 -159.247803
v -0.210522 25.802393 -153.899689
v -0.210522 25.793221 -159.247803
v -3.990730 25.797808 -156.573746
v 3.569686 25.797808 -156.573746
v 3.569686 25.793221 -159.247803
v -3.990730 25.793221 -159.247803
v -3.990730 25.802393 -153.899689
v 3.569686 25.802393 -153.899689
v -3.403844 1.024293 -151.390869
v -6.597166 1.024293 -151.390869
v -6.597166 1.020420 -153.649750
v 6.176122 1.020420 -153.649750
v 6.176122 1.024293 -151.390869
v 2.982800 1.024293 -151.390869
v -3.403844 1.020420 -153.649750
v 2.982800 1.020420 -153.649750
v -3.928357 18.601675 -206.004089
v -7.680839 18.601675 -206.004089
v -7.628594 18.054745 -206.226700
v 7.381334 18.054745 -206.226700
v 7.329089 18.601675 -206.004089
v -3.928357 20.884974 -203.480957
v -7.680839 20.884974 -203.480957
v -7.680839 20.314150 -204.111725
v 7.329089 20.314150 -204.111725
v 7.329089 20.884974 -203.480957
v -7.680839 21.324078 -202.998260
v 3.576607 18.601675 -206.004089
v -0.175875 18.601675 -206.004089
v -7.680839 19.172499 -205.373306
v -7.680839 19.743322 -204.742523
v 7.329089 19.172499 -205.373306
v 7.329089 19.743322 -204.742523
v 7.329089 21.324078 -202.998260
v 7.329089 21.763182 -202.515579
v -7.680839 22.202286 -202.032883
v -7.680839 21.763182 -202.515579
v -3.928357 19.743322 -204.742523
v -3.928357 21.763182 -202.515579
v 3.576607 21.763182 -202.515579
v -0.175875 21.763182 -202.515579
v -0.123630 18.054745 -206.226700
v 7.329089 22.202286 -202.032883
v 3.576607 20.884974 -203.480957
v 3.576607 19.743322 -204.742523
v -0.175875 22.202286 -202.032883
v -3.876112 18.054745 -206.226700
v 3.576607 21.324078 -202.998260
v -3.928357 21.324078 -202.998260
v -3.928357 22.202286 -202.032883
v 3.576607 19.172499 -205.373306
v -3.928357 19.172499 -205.373306
v -3.928357 20.314150 -204.111725
v 3.576607 20.314150 -204.111725
v 3.576607 22.202286 -202.032883
v 3.628852 18.054745 -206.226700
vn 0.0000 -1.0000 -0.0000
vn 0.0000 1.0000 0.0000
vn 1.0000 0.0000 0.0000
vn -0.0000 -0.0000 1.0000
vn -1.0000 -0.0000 -0.0000
vn 0.0000 0.9730 0.2309
vn 0.0000 -0.9999 -0.0148
vn 0.0000 0.9998 -0.0197
vn 0.0000 -0.9720 -0.2351
vn 0.0000 -0.9791 0.2035
vn 0.0000 -0.9999 -0.0108
vn 0.0000 0.9999 0.0108
vn 0.0000 0.9791 -0.2035
vn 0.0000 1.0000 0.0010
vn 0.9459 0.0035 -0.3245
vn -0.9459 0.0035 -0.3245
vn 0.0000 -0.9991 -0.0417
vn -0.9714 -0.0026 0.2375
vn 0.0000 -1.0000 0.0099
vn 0.0000 0.9998 0.0192
vn 0.9714 -0.0026 0.2375
vn 0.0000 1.0000 -0.0011
vn 0.0000 -0.9998 -0.0208
vn 0.0000 -0.8863 -0.4630
vn 0.0000 -0.9665 -0.2565
vn 0.0000 0.9685 0.2489
vn 0.0000 0.7796 0.6263
vn 0.0000 0.8901 0.4558
vn 0.0000 -0.7796 -0.6263
vn 0.0000 0.6174 0.7866
vn 0.0000 -0.7454 -0.6666
vn 0.0000 0.9630 0.2697
vn 0.0000 -0.5996 -0.8003
vn 0.0000 -0.2387 -0.9711
vn 0.0000 0.2450 0.9695
vn 0.0000 0.0524 0.9986
vn 0.0000 -0.0397 -0.9992
vn 0.0000 0.0397 0.9992
vn -0.9968 -0.0690 -0.0399
vn 0.0000 -0.0291 -0.9996
vn 0.0000 0.4008 -0.9162
vn -0.9979 -0.0482 0.0436
vn 0.9968 0.0690 0.0399
vn 0.0000 -0.7397 0.6729
vn 0.0000 0.7415 -0.6710
vn -0.9995 0.0241 -0.0220
vn 0.0000 0.7431 -0.6692
vn 0.0000 0.9284 -0.3715
vn 0.0000 0.8482 -0.5297
vn 0.0000 -0.8457 0.5337
vn 0.0000 -1.0000 0.0017
vn 0.0000 -0.9225 0.3860
vn 0.0000 1.0000 -0.0017
vn 0.0000 0.0017 1.0000
vn -0.9997 0.0237 -0.0000
vn -0.9979 -0.0481 0.0437
vn -0.9995 0.0242 -0.0219
vn 0.9979 -0.0483 0.0437
vn 0.0000 -0.3770 0.9262
vn -0.9979 -0.0481 0.0438
vn 0.0000 0.7064 0.7078
vn 0.9995 0.0241 -0.0219
vn 0.9979 -0.0482 0.0438
vn -0.9956 -0.0942 -0.0022
vn 0.0000 -0.7098 -0.7044
vn -0.9992 -0.0292 0.0265
vn 0.0000 0.7245 0.6893
vn 0.9992 0.0293 -0.0265
vn 0.9992 0.0292 -0.0265
vn 0.0000 -0.7245 -0.6893
vn -0.9992 -0.0293 0.0265
vn 0.9961 0.0845 0.0262
vn 0.9995 0.0241 -0.0218
vn 0.0000 0.7378 0.6750
vn 0.0000 -0.7416 -0.6708
vn 0.9904 0.0410 0.1317
vn 0.9989 -0.0473 0.0001
vn 0.0000 -0.0067 1.0000
vn 0.0000 -0.0101 -0.9999
vn 0.9997 0.0237 -0.0000
vn -0.9989 -0.0473 0.0001
vn 0.0000 -0.7415 0.6710
vn -0.9961 -0.0845 -0.0262
usemtl Material
s off
f 9//7 10//7 11//7 12//7
f 13//8 16//8 15//8 14//8
f 9//9 13//9 14//9 10//9
f 10//10 14//10 15//10 11//10
f 11//11 15//11 16//11 12//11
f 9//7 12//7 18//7 17//7
f 18//11 20//11 24//11 22//11
f 13//9 9//9 17//9 19//9
f 16//8 13//8 19//8 20//8
f 12//11 16//11 20//11 18//11
f 24//12 23//12 27//12 28//12
f 17//13 18//13 22//13 21//13
f 20//14 19//14 23//14 24//14
f 19//9 17//9 21//9 23//9
f 26//11 28//11 32//11 30//11
f 23//9 21//9 25//9 27//9
f 22//11 24//11 28//11 26//11
f 21//15 22//15 26//15 25//15
f 29//16 30//16 34//16 33//16
f 25//17 26//17 30//17 29//17
f 28//18 27//18 31//18 32//18
f 27//9 25//9 29//9 31//9
f 36//18 35//18 39//18 40//18
f 32//19 31//19 35//19 36//19
f 31//9 29//9 33//9 35//9
f 30//11 32//11 36//11 34//11
f 38//11 40//11 44//11 42//11
f 35//9 33//9 37//9 39//9
f 34//11 36//11 40//11 38//11
f 33//17 34//17 38//17 37//17
f 44//20 43//20 47//20 48//20
f 37//17 38//17 42//17 41//17
f 40//18 39//18 43//18 44//18
f 39//9 37//9 41//9 43//9
f 47//9 45//9 49//9 51//9
f 43//21 41//21 45//21 47//21
f 42//22 44//22 48//22 46//22
f 41//23 42//23 46//23 45//23
f 50//24 52//24 56//24 54//24
f 46//11 48//11 52//11 50//11
f 45//17 46//17 50//17 49//17
f 48//18 47//18 51//18 52//18
f 56//18 55//18 59//18 60//18
f 49//25 50//25 54//25 53//25
f 52//26 51//26 55//26 56//26
f 51//27 49//27 53//27 55//27
f 58//11 60//11 64//11 62//11
f 55//9 53//9 57//9 59//9
f 54//11 56//11 60//11 58//11
f 53//17 54//17 58//17 57//17
f 62//11 64//11 68//11 66//11
f 57//17 58//17 62//17 61//17
f 60//18 59//18 63//18 64//18
f 59//9 57//9 61//9 63//9
f 68//28 67//28 71//28 72//28
f 61//17 62//17 66//17 65//17
f 64//18 63//18 67//18 68//18
f 63//9 61//9 65//9 67//9
f 70//11 72//11 76//11 74//11
f 67//9 65//9 69//9 71//9
f 66//11 68//11 72//11 70//11
f 65//29 66//29 70//29 69//29
f 73//30 74//30 78//30 77//30
f 69//31 70//31 74//31 73//31
f 72//32 71//32 75//32 76//32
f 71//9 69//9 73//9 75//9
f 80//33 79//33 83//33 84//33
f 76//34 75//34 79//34 80//34
f 75//9 73//9 77//9 79//9
f 74//11 76//11 80//11 78//11
f 82//11 84//11 88//11 86//11
f 79//9 77//9 81//9 83//9
f 78//11 80//11 84//11 82//11
f 77//35 78//35 82//35 81//35
f 88//36 87//36 91//36 92//36
f 81//37 82//37 86//37 85//37
f 84//38 83//38 87//38 88//38
f 83//9 81//9 85//9 87//9
f 91//9 89//9 93//9 95//9
f 87//9 85//9 89//9 91//9
f 86//11 88//11 92//11 90//11
f 85//39 86//39 90//39 89//39
f 94//11 96//11 100//11 98//11
f 90//11 92//11 96//11 94//11
f 89//40 90//40 94//40 93//40
f 92//41 91//41 95//41 96//41
f 202//42 150//42 103//42 162//42
f 93//43 94//43 98//43 97//43
f 96//44 95//44 99//44 161//44 133//44 148//44 100//44
f 95//9 93//9 97//9 99//9
f 102//45 104//45 166//45 138//45 153//45 108//45 106//45 225//45 204//45 215//45
f 99//9 97//9 101//9 103//9 150//9 135//9 163//9
f 98//11 100//11 151//11 136//11 164//11 104//11 102//11
f 97//46 98//46 102//46 213//46 203//46 223//46 101//46
f 106//11 108//11 169//11 140//11 156//11 112//11 110//11 228//11 206//11 218//11
f 253//47 225//47 106//47 214//47
f 170//48 141//48 270//48 269//48
f 103//49 101//49 216//49 205//49 226//49 105//49 107//49 154//49 139//49 167//49
f 200//50 159//50 115//50 171//50
f 252//51 228//51 110//51 217//51
f 194//52 177//52 276//52 286//52
f 107//9 105//9 219//9 207//9 229//9 109//9 111//9 157//9 141//9 170//9
f 114//11 116//11 120//11 118//11
f 111//9 109//9 231//9 209//9 221//9 113//9 115//9 159//9 143//9 172//9
f 110//11 112//11 160//11 144//11 173//11 116//11 114//11 232//11 210//11 222//11
f 251//53 232//53 114//53 220//53
f 117//54 118//54 122//54 121//54
f 113//55 230//55 208//55 220//55 114//55 118//55 117//55
f 116//56 158//56 142//56 171//56 115//56 119//56 120//56
f 115//9 113//9 117//9 119//9
f 124//57 123//57 127//57 303//57 294//57 299//57 128//57
f 120//58 119//58 123//58 124//58
f 119//9 117//9 121//9 123//9
f 118//11 120//11 124//11 122//11
f 126//11 128//11 305//11 296//11 301//11 132//11 130//11
f 123//9 121//9 125//9 127//9
f 122//11 124//11 128//11 126//11
f 121//59 122//59 126//59 125//59
f 131//60 129//60 130//60 132//60 300//60 295//60 304//60
f 125//59 126//59 130//59 129//59
f 304//61 314//61 322//61 320//61
f 127//9 125//9 129//9 131//9 302//9 297//9 306//9
f 143//62 159//62 280//62 272//62
f 195//50 176//50 142//50 158//50
f 198//63 155//63 259//63 290//63
f 140//64 169//64 267//64 268//64
f 191//65 180//65 146//65 181//65
f 190//65 167//65 139//65 182//65
f 189//42 183//42 134//42 149//42
f 188//42 184//42 147//42 185//42
f 187//42 163//42 135//42 186//42
f 184//42 187//42 186//42 147//42
f 133//42 161//42 187//42 184//42
f 161//42 99//42 163//42 187//42
f 151//42 188//42 185//42 136//42
f 100//42 148//42 188//42 151//42
f 148//42 133//42 184//42 188//42
f 164//42 189//42 149//42 104//42
f 136//42 185//42 189//42 164//42
f 185//42 147//42 183//42 189//42
f 180//65 190//65 182//65 146//65
f 134//65 162//65 190//65 180//65
f 162//65 103//65 167//65 190//65
f 166//65 191//65 181//65 138//65
f 104//65 149//65 191//65 166//65
f 149//65 134//65 180//65 191//65
f 111//66 172//66 271//66 263//66
f 138//65 181//65 192//65 153//65
f 181//65 146//65 179//65 192//65
f 201//67 154//67 257//67 293//67
f 179//67 201//67 293//67 279//67
f 193//68 168//68 281//68 285//68
f 173//50 195//50 158//50 116//50
f 160//69 112//69 260//69 264//69
f 141//48 157//48 262//48 270//48
f 152//63 197//63 289//63 254//63
f 107//48 170//48 269//48 258//48
f 154//70 107//70 258//70 257//70
f 178//68 193//68 285//68 277//68
f 156//64 140//64 268//64 261//64
f 197//63 174//63 275//63 289//63
f 176//50 200//50 171//50 142//50
f 165//71 137//71 266//71 265//71
f 169//64 108//64 255//64 267//64
f 192//67 179//67 279//67 284//67
f 146//65 182//65 201//65 179//65
f 182//65 139//65 154//65 201//65
f 183//42 202//42 162//42 134//42
f 147//42 186//42 202//42 183//42
f 186//42 135//42 150//42 202//42
f 250//53 233//53 208//53 230//53
f 248//53 222//53 210//53 235//53
f 245//51 218//51 206//51 237//51
f 243//47 239//47 212//47 240//47
f 242//47 215//47 204//47 241//47
f 239//47 242//47 241//47 212//47
f 203//47 213//47 242//47 239//47
f 213//47 102//47 215//47 242//47
f 216//47 243//47 240//47 205//47
f 101//47 223//47 243//47 216//47
f 223//47 203//47 239//47 243//47
f 226//47 244//47 224//47 105//47
f 205//47 240//47 244//47 226//47
f 240//47 212//47 238//47 244//47
f 214//51 106//51 218//51 245//51
f 219//51 246//51 236//51 207//51
f 105//51 224//51 246//51 219//51
f 229//51 247//51 227//51 109//51
f 207//51 236//51 247//51 229//51
f 217//53 110//53 222//53 248//53
f 231//53 249//53 234//53 209//53
f 109//53 227//53 249//53 231//53
f 221//53 250//53 230//53 113//53
f 209//53 234//53 250//53 221//53
f 234//53 211//53 233//53 250//53
f 233//53 251//53 220//53 208//53
f 211//53 235//53 251//53 233//53
f 235//53 210//53 232//53 251//53
f 237//51 206//51 228//51 252//51
f 212//47 241//47 253//47 238//47
f 241//47 204//47 225//47 253//47
f 285//72 281//72 350//72 354//72
f 265//73 266//73 335//73 334//73
f 274//72 264//72 333//72 343//72
f 277//72 285//72 354//72 346//72
f 264//72 260//72 329//72 333//72
f 254//74 289//74 358//74 323//74
f 272//75 280//75 349//75 341//75
f 293//76 257//76 326//76 362//76
f 284//76 279//76 348//76 353//76
f 262//74 263//74 332//74 331//74
f 289//74 275//74 344//74 358//74
f 270//74 262//74 331//74 339//74
f 279//76 293//76 362//76 348//76
f 256//76 284//76 353//76 325//76
f 260//77 261//77 330//77 329//77
f 261//77 268//77 337//77 330//77
f 288//77 265//77 334//77 357//77
f 266//73 254//73 323//73 335//73
f 280//73 292//73 361//73 349//73
f 257//78 258//78 327//78 326//78
f 174//63 198//63 290//63 275//63
f 144//69 160//69 264//69 274//69
f 155//52 194//52 286//52 259//52
f 112//64 156//64 261//64 260//64
f 172//66 143//66 272//66 271//66
f 168//79 199//79 291//79 281//79
f 177//80 145//80 278//80 276//80
f 173//69 144//69 274//69 273//69
f 199//79 175//79 282//79 291//79
f 195//81 173//81 273//81 287//81
f 157//48 111//48 263//48 262//48
f 176//81 195//81 287//81 283//81
f 175//79 196//79 288//79 282//79
f 137//71 152//71 254//71 266//71
f 145//80 178//80 277//80 278//80
f 108//82 153//82 256//82 255//82
f 200//81 176//81 283//81 292//81
f 196//79 165//79 265//79 288//79
f 153//67 192//67 284//67 256//67
f 159//81 200//81 292//81 280//81
f 313//57 307//57 295//57 300//57
f 312//57 308//57 298//57 309//57
f 311//57 306//57 297//57 310//57
f 308//57 311//57 310//57 298//57
f 294//57 303//57 311//57 308//57
f 303//57 127//57 306//57 311//57
f 305//57 312//57 309//57 296//57
f 128//57 299//57 312//57 305//57
f 299//57 294//57 308//57 312//57
f 302//83 131//83 319//83 318//83
f 296//57 309//57 313//57 301//57
f 309//57 298//57 307//57 313//57
f 307//57 314//57 304//57 295//57
f 298//57 310//57 314//57 307//57
f 310//57 297//57 302//57 314//57
f 322//57 318//57 319//57 320//57
f 317//57 321//57 315//57 316//57
f 300//84 132//84 316//84 315//84
f 301//85 313//85 321//85 317//85
f 313//86 300//86 315//86 321//86
f 314//85 302//85 318//85 322//85
f 131//84 304//84 320//84 319//84
f 132//87 301//87 317//87 316//87
f 362//65 326//65 327//65 334//65
f 360//88 331//88 332//88 350//88
f 357//88 338//88 339//88 351//88
f 354//50 340//50 341//50 346//50
f 353//65 348//65 335//65 323//65
f 325//65 353//65 323//65 324//65
f 350//50 332//50 340//50 354//50
f 333//50 355//50 345//50 343//50
f 329//50 328//50 355//50 333//50
f 343//50 345//50 356//50 342//50
f 345//50 347//50 352//50 356//50
f 334//88 327//88 338//88 357//88
f 336//88 358//88 344//88 337//88
f 324//88 323//88 358//88 336//88
f 330//88 359//88 328//88 329//88
f 337//88 344//88 359//88 330//88
f 351//88 339//88 331//88 360//88
f 347//50 346//50 361//50 352//50
f 346//50 341//50 349//50 361//50
f 348//65 362//65 334//65 335//65
f 290//74 259//74 328//74 359//74
f 268//77 267//77 336//77 337//77
f 275//74 290//74 359//74 344//74
f 269//74 270//74 339//74 338//74
f 286//75 276//75 345//75 355//75
f 267//77 255//77 324//77 336//77
f 271//75 272//75 341//75 340//75
f 259//75 286//75 355//75 328//75
f 258//74 269//74 338//74 327//74
f 281//77 291//77 360//77 350//77
f 273//72 274//72 343//72 342//72
f 263//75 271//75 340//75 332//75
f 291//77 282//77 351//77 360//77
f 287//73 273//73 342//73 356//73
f 278//76 277//76 346//76 347//76
f 283//73 287//73 356//73 352//73
f 255//89 256//89 325//89 324//89
f 276//76 278//76 347//76 345//76
f 292//73 283//73 352//73 361//73
f 282//77 288//77 357//77 351//77
